<svg width="1647" height="190" viewBox="0 0 1647 190" fill="none" xmlns="http://www.w3.org/2000/svg">
<rect x="1089" y="4" width="186" height="186" rx="30" fill="#CDCDCD"/>
<path d="M1181.54 32.8917C1180.37 32.9506 1179.23 33.2403 1178.17 33.7438L1132.2 55.6978C1131.01 56.2658 1129.97 57.0922 1129.14 58.1156C1128.32 59.139 1127.74 60.3332 1127.44 61.6095L1116.1 110.924C1115.84 112.06 1115.81 113.237 1116.02 114.384C1116.22 115.532 1116.66 116.627 1117.3 117.605C1117.45 117.844 1117.62 118.076 1117.8 118.299L1149.62 157.841C1150.44 158.864 1151.48 159.69 1152.67 160.258C1153.86 160.825 1155.17 161.12 1156.49 161.12L1207.52 161.108C1208.84 161.109 1210.14 160.815 1211.33 160.248C1212.52 159.682 1213.57 158.857 1214.39 157.835L1246.2 118.287C1247.02 117.263 1247.6 116.069 1247.9 114.792C1248.19 113.515 1248.19 112.189 1247.9 110.912L1236.54 61.5977C1236.24 60.3215 1235.66 59.1273 1234.84 58.1038C1234.02 57.0804 1232.97 56.254 1231.78 55.6861L1185.8 33.7438C1184.48 33.1104 1183.01 32.8174 1181.54 32.8917Z" fill="#326CE5"/>
<path d="M1182 49.674C1180.48 49.6742 1179.25 51.0422 1179.25 52.7297C1179.25 52.7556 1179.25 52.7804 1179.25 52.8061C1179.25 53.0354 1179.24 53.3117 1179.25 53.5113C1179.28 54.4846 1179.49 55.2295 1179.62 56.1263C1179.85 58.0456 1180.05 59.6365 1179.93 61.1153C1179.81 61.6729 1179.4 62.1829 1179.03 62.5374L1178.97 63.7009C1177.32 63.8376 1175.66 64.088 1174 64.4648C1166.85 66.0862 1160.7 69.7644 1156.02 74.7308C1155.71 74.5236 1155.18 74.1424 1155.02 74.0256C1154.53 74.0919 1154.03 74.2434 1153.39 73.867C1152.16 73.0385 1151.03 71.895 1149.68 70.5175C1149.06 69.8585 1148.61 69.2311 1147.87 68.5959C1147.7 68.4516 1147.44 68.2566 1147.25 68.1082C1146.68 67.6479 1146 67.4079 1145.34 67.3854C1144.49 67.3564 1143.68 67.687 1143.15 68.355C1142.2 69.5425 1142.5 71.3576 1143.82 72.4096C1143.83 72.4203 1143.85 72.4286 1143.86 72.439C1144.04 72.586 1144.27 72.7743 1144.43 72.8974C1145.22 73.4759 1145.93 73.7721 1146.71 74.2313C1148.36 75.2471 1149.72 76.0893 1150.81 77.1048C1151.23 77.5551 1151.3 78.3484 1151.36 78.6915L1152.24 79.4789C1147.52 86.5801 1145.33 95.3515 1146.63 104.289L1145.47 104.624C1145.17 105.016 1144.74 105.633 1144.29 105.817C1142.88 106.262 1141.28 106.426 1139.36 106.628C1138.46 106.703 1137.68 106.658 1136.72 106.839C1136.51 106.879 1136.21 106.956 1135.98 107.01C1135.98 107.011 1135.97 107.014 1135.96 107.015C1135.95 107.018 1135.93 107.024 1135.92 107.027C1134.3 107.419 1133.26 108.909 1133.59 110.377C1133.93 111.845 1135.51 112.738 1137.14 112.386C1137.15 112.384 1137.17 112.383 1137.18 112.381C1137.2 112.376 1137.22 112.367 1137.24 112.363C1137.46 112.313 1137.75 112.258 1137.95 112.204C1138.89 111.952 1139.57 111.582 1140.42 111.258C1142.24 110.606 1143.75 110.06 1145.21 109.848C1145.83 109.8 1146.47 110.226 1146.8 110.406L1148 110.2C1150.76 118.753 1156.54 125.666 1163.86 130.004L1163.36 131.203C1163.54 131.668 1163.74 132.298 1163.61 132.758C1163.08 134.142 1162.16 135.603 1161.12 137.232C1160.61 137.984 1160.1 138.568 1159.64 139.429C1159.53 139.636 1159.4 139.952 1159.29 140.17C1158.58 141.682 1159.1 143.424 1160.46 144.078C1161.83 144.735 1163.52 144.042 1164.26 142.526C1164.26 142.524 1164.26 142.523 1164.26 142.52C1164.27 142.519 1164.26 142.516 1164.26 142.515C1164.37 142.3 1164.52 142.017 1164.61 141.815C1165 140.923 1165.13 140.158 1165.4 139.294C1166.13 137.466 1166.53 135.549 1167.53 134.354C1167.8 134.026 1168.25 133.901 1168.72 133.776L1169.34 132.648C1175.72 135.098 1182.87 135.755 1190.01 134.135C1191.64 133.765 1193.21 133.287 1194.73 132.713C1194.91 133.023 1195.23 133.62 1195.32 133.771C1195.79 133.924 1196.31 134.003 1196.73 134.623C1197.48 135.903 1197.99 137.418 1198.61 139.247C1198.89 140.111 1199.02 140.876 1199.41 141.768C1199.5 141.972 1199.65 142.258 1199.75 142.473C1200.49 143.994 1202.19 144.69 1203.56 144.031C1204.92 143.377 1205.44 141.635 1204.73 140.123C1204.62 139.905 1204.48 139.588 1204.37 139.382C1203.91 138.521 1203.4 137.943 1202.89 137.191C1201.85 135.562 1200.99 134.209 1200.45 132.824C1200.23 132.111 1200.49 131.666 1200.66 131.203C1200.56 131.083 1200.34 130.409 1200.21 130.092C1207.82 125.6 1213.43 118.429 1216.07 110.148C1216.43 110.204 1217.04 110.313 1217.24 110.353C1217.66 110.08 1218.04 109.725 1218.79 109.783C1220.25 109.996 1221.76 110.541 1223.58 111.194C1224.43 111.518 1225.11 111.894 1226.05 112.146C1226.25 112.199 1226.54 112.248 1226.76 112.298C1226.78 112.303 1226.8 112.312 1226.82 112.316C1226.83 112.319 1226.85 112.319 1226.86 112.322C1228.49 112.673 1230.07 111.781 1230.41 110.312C1230.74 108.844 1229.7 107.354 1228.08 106.963C1227.85 106.909 1227.51 106.818 1227.28 106.775C1226.32 106.593 1225.54 106.638 1224.64 106.563C1222.72 106.362 1221.12 106.198 1219.71 105.752C1219.13 105.528 1218.72 104.842 1218.52 104.559L1217.41 104.236C1217.99 100.07 1217.83 95.7343 1216.83 91.3961C1215.83 87.0176 1214.05 83.013 1211.68 79.4848C1211.96 79.2258 1212.5 78.7494 1212.65 78.6092C1212.7 78.1157 1212.66 77.5984 1213.17 77.052C1214.25 76.0364 1215.62 75.1943 1217.26 74.1784C1218.04 73.7191 1218.77 73.4231 1219.55 72.8445C1219.73 72.7137 1219.97 72.5065 1220.16 72.3568C1221.48 71.3044 1221.78 69.4894 1220.83 68.3021C1219.88 67.1148 1218.05 67.0029 1216.73 68.0553C1216.54 68.204 1216.28 68.398 1216.12 68.543C1215.38 69.1782 1214.92 69.8056 1214.3 70.4646C1212.94 71.8422 1211.82 72.9915 1210.59 73.82C1210.06 74.1304 1209.27 74.023 1208.92 74.0021L1207.87 74.7484C1201.91 68.494 1193.78 64.4953 1185.03 63.7185C1185.01 63.3521 1184.97 62.6897 1184.97 62.4904C1184.61 62.1478 1184.18 61.8554 1184.07 61.1153C1183.95 59.6365 1184.15 58.0456 1184.38 56.1263C1184.51 55.2295 1184.72 54.4846 1184.75 53.5113C1184.76 53.29 1184.75 52.969 1184.75 52.7297C1184.75 51.0422 1183.52 49.6739 1182 49.674ZM1178.55 71.0052L1177.73 85.4316L1177.68 85.461C1177.62 86.7516 1176.56 87.7822 1175.25 87.7822C1174.72 87.7822 1174.23 87.6106 1173.82 87.3179L1173.8 87.3297L1161.97 78.9441C1165.6 75.3692 1170.26 72.7274 1175.62 71.5106C1176.6 71.2883 1177.58 71.1234 1178.55 71.0052ZM1185.45 71.0052C1191.71 71.7747 1197.5 74.6079 1201.93 78.95L1190.18 87.2827L1190.13 87.2651C1189.09 88.027 1187.62 87.8379 1186.81 86.8185C1186.47 86.4008 1186.3 85.9098 1186.28 85.414L1186.27 85.4081L1185.45 71.0052ZM1157.67 84.3328L1168.48 93.9935L1168.47 94.0522C1169.44 94.8997 1169.59 96.3704 1168.77 97.39C1168.44 97.8077 1167.99 98.0878 1167.52 98.2186L1167.5 98.2656L1153.65 102.261C1152.95 95.8182 1154.47 89.5547 1157.67 84.3328ZM1206.24 84.3386C1207.85 86.9397 1209.07 89.8449 1209.79 92.9945C1210.5 96.1063 1210.68 99.2125 1210.39 102.214L1196.47 98.2068L1196.45 98.148C1195.21 97.8075 1194.44 96.54 1194.73 95.2686C1194.85 94.7478 1195.13 94.3072 1195.5 93.9817L1195.5 93.9523L1206.24 84.3386ZM1179.78 94.7398H1184.21L1186.96 98.1774L1185.97 102.467L1182 104.377L1178.01 102.461L1177.02 98.1715L1179.78 94.7398ZM1193.97 106.504C1194.16 106.495 1194.35 106.512 1194.53 106.545L1194.56 106.516L1208.88 108.937C1206.79 114.825 1202.77 119.926 1197.41 123.34L1191.85 109.912L1191.87 109.889C1191.36 108.702 1191.87 107.311 1193.04 106.745C1193.35 106.6 1193.66 106.52 1193.97 106.504ZM1169.91 106.563C1171 106.578 1171.98 107.337 1172.24 108.449C1172.36 108.97 1172.3 109.486 1172.1 109.942L1172.14 109.995L1166.64 123.287C1161.49 119.987 1157.4 115.046 1155.2 108.984L1169.41 106.575L1169.43 106.604C1169.59 106.575 1169.75 106.561 1169.91 106.563ZM1181.91 112.386C1182.29 112.372 1182.68 112.451 1183.04 112.627C1183.53 112.859 1183.9 113.224 1184.13 113.662H1184.18L1191.19 126.308C1190.28 126.612 1189.34 126.872 1188.39 127.089C1183.03 128.304 1177.69 127.936 1172.86 126.29L1179.85 113.667H1179.86C1180.28 112.884 1181.07 112.417 1181.91 112.386Z" fill="white" stroke="white" stroke-width="0.25"/>
<rect x="364" y="4" width="186" height="186" rx="30" fill="#CDCDCD"/>
<path d="M457.331 21C415.732 21 382 54.7395 382 96.3606C382 129.657 403.585 157.906 433.516 167.871C437.281 168.568 438.663 166.236 438.663 164.245C438.663 162.448 438.593 156.511 438.561 150.214C417.603 154.773 413.181 141.323 413.181 141.323C409.754 132.612 404.817 130.296 404.817 130.296C397.983 125.619 405.332 125.715 405.332 125.715C412.897 126.247 416.88 133.481 416.88 133.481C423.599 145.002 434.503 141.671 438.802 139.746C439.477 134.875 441.43 131.551 443.584 129.669C426.852 127.763 409.263 121.301 409.263 92.4249C409.263 84.1976 412.206 77.4745 417.025 72.1971C416.243 70.2987 413.664 62.6341 417.755 52.2536C417.755 52.2536 424.08 50.2281 438.476 59.9785C444.485 58.3082 450.929 57.4713 457.331 57.443C463.733 57.4713 470.182 58.3082 476.203 59.9785C490.581 50.2281 496.898 52.2536 496.898 52.2536C500.998 62.6341 498.419 70.2987 497.637 72.1971C502.467 77.4745 505.389 84.197 505.389 92.4249C505.389 121.369 487.767 127.743 470.992 129.608C473.694 131.947 476.102 136.534 476.102 143.564C476.102 153.647 476.014 161.763 476.014 164.245C476.014 166.251 477.37 168.6 481.189 167.861C511.104 157.884 532.662 129.646 532.662 96.3606C532.662 54.7395 498.934 21 457.331 21Z" fill="#161614"/>
<path d="M410.214 128.353C410.049 128.727 409.459 128.839 408.923 128.583C408.377 128.337 408.069 127.826 408.247 127.45C408.409 127.065 408.999 126.958 409.544 127.216C410.092 127.462 410.404 127.977 410.214 128.353ZM413.92 131.66C413.56 131.994 412.858 131.839 412.381 131.312C411.888 130.787 411.796 130.085 412.161 129.746C412.531 129.413 413.212 129.569 413.706 130.095C414.199 130.626 414.295 131.324 413.919 131.661M416.462 135.892C416 136.213 415.245 135.912 414.779 135.242C414.317 134.573 414.317 133.769 414.789 133.447C415.257 133.124 416 133.414 416.473 134.079C416.933 134.76 416.933 135.564 416.461 135.893M420.761 140.794C420.348 141.249 419.469 141.127 418.825 140.505C418.166 139.898 417.983 139.035 418.397 138.58C418.815 138.124 419.699 138.252 420.348 138.868C421.002 139.475 421.201 140.343 420.761 140.794ZM426.317 142.449C426.135 143.039 425.288 143.307 424.435 143.056C423.583 142.798 423.025 142.107 423.197 141.51C423.374 140.916 424.225 140.637 425.085 140.905C425.936 141.162 426.494 141.848 426.317 142.449ZM432.641 143.15C432.662 143.772 431.938 144.287 431.043 144.299C430.142 144.318 429.413 143.815 429.404 143.204C429.404 142.576 430.111 142.066 431.011 142.051C431.907 142.033 432.641 142.533 432.641 143.15ZM438.852 142.912C438.96 143.519 438.337 144.141 437.448 144.307C436.574 144.467 435.764 144.092 435.653 143.491C435.544 142.87 436.178 142.247 437.051 142.086C437.942 141.931 438.739 142.296 438.852 142.912Z" fill="#161614"/>
<rect x="1461" width="186" height="186" rx="30" fill="#CDCDCD"/>
<g clip-path="url(#clip0_0_1)">
<path fill-rule="evenodd" clip-rule="evenodd" d="M1611.95 90.0312C1611.95 122.904 1585.95 149.554 1553.88 149.554C1521.81 149.554 1495.8 122.904 1495.8 90.0312C1495.8 57.157 1521.81 30.5073 1553.88 30.5073C1585.95 30.5073 1611.95 57.157 1611.95 90.0312Z" fill="#D33833"/>
<path d="M1498.17 104.773C1498.17 104.773 1493.97 42.7005 1551.05 40.9268L1547.06 34.2761L1516.09 44.6957L1507.24 54.8931L1499.5 69.7467L1495.07 87.0383L1496.4 98.5659" fill="#EF3D3A"/>
<path d="M1514.1 49.4257C1503.91 59.8725 1497.61 74.2964 1497.61 90.2533C1497.61 106.207 1503.91 120.633 1514.1 131.078C1524.3 141.522 1538.35 147.968 1553.88 147.968C1569.41 147.968 1583.46 141.522 1593.65 131.078C1603.84 120.633 1610.15 106.207 1610.15 90.2533C1610.15 74.2964 1603.84 59.8725 1593.65 49.4257C1583.46 38.9828 1569.41 32.5377 1553.88 32.5364C1538.35 32.5377 1524.3 38.9828 1514.1 49.4257ZM1511.52 133.604C1500.69 122.507 1494 107.171 1494 90.2533C1494 73.3334 1500.69 57.9983 1511.52 46.9004C1522.35 35.8005 1537.34 28.9204 1553.88 28.9224C1570.42 28.9204 1585.41 35.8005 1596.23 46.9004C1607.06 57.9983 1613.76 73.3347 1613.76 90.2533C1613.76 107.171 1607.06 122.507 1596.23 133.604C1585.41 144.704 1570.42 151.583 1553.88 151.583C1537.34 151.583 1522.35 144.704 1511.52 133.604Z" fill="#231F20"/>
<path fill-rule="evenodd" clip-rule="evenodd" d="M1578.33 90.361L1569.48 91.6911L1557.53 93.0213L1549.79 93.2427L1542.26 93.0213L1536.51 91.2475L1531.42 85.7056L1527.44 74.3995L1526.56 71.9607L1521.25 70.1876L1518.15 65.0886L1515.94 57.7729L1518.37 51.3437L1524.12 49.3485L1528.77 51.5658L1530.98 56.4427L1533.64 55.9991L1534.52 54.8912L1533.64 49.7921L1533.41 43.3629L1534.74 34.4956L1534.69 29.4305L1538.72 22.9681L1545.8 17.869L1558.19 12.5485L1571.91 14.5437L1583.86 23.1895L1589.39 32.0568L1592.93 38.486L1593.81 54.4475L1591.16 68.1924L1586.29 80.385L1581.64 86.8142" fill="#F0D6B7"/>
<path fill-rule="evenodd" clip-rule="evenodd" d="M1570.8 128.713L1539.17 130.043V135.363L1541.82 153.985L1540.49 155.537L1518.37 147.999L1516.82 145.339L1514.61 120.289L1509.52 105.214L1508.41 101.667L1526.11 89.4745L1531.64 87.2572L1536.51 93.2428L1540.71 97.0117L1545.58 98.5633L1547.79 99.2283L1550.45 110.756L1552.44 113.195L1557.53 111.421L1553.99 118.294L1573.24 127.382L1570.8 128.713Z" fill="#335061"/>
<path fill-rule="evenodd" clip-rule="evenodd" d="M1518.37 51.3437L1524.12 49.3485L1528.77 51.5658L1530.98 56.4427L1533.64 55.9992L1534.3 53.3389L1532.97 48.2405L1534.3 36.0472L1533.19 29.3966L1537.17 24.7411L1545.8 17.869L1543.37 14.5437L1531.2 20.5293L1526.11 24.5197L1523.24 30.7267L1518.81 36.7123L1517.48 43.8065L1518.37 51.3437Z" fill="#6D6B6D"/>
<path fill-rule="evenodd" clip-rule="evenodd" d="M1527.44 30.5052C1527.44 30.5052 1530.76 22.303 1544.03 18.3126C1557.31 14.3223 1544.7 15.4302 1544.7 15.4302L1530.32 20.9729L1524.79 26.5149L1522.35 30.9489L1527.44 30.5052Z" fill="#DCD9D8"/>
<path fill-rule="evenodd" clip-rule="evenodd" d="M1520.8 49.7921C1520.8 49.7921 1516.16 34.2735 1533.86 32.0569L1533.19 29.3966L1521.02 32.279L1517.48 43.8065L1518.37 51.3437L1520.8 49.7921Z" fill="#DCD9D8"/>
<path fill-rule="evenodd" clip-rule="evenodd" d="M1527.88 70.4091L1530.78 67.5965C1530.78 67.5965 1532.09 67.7488 1532.31 69.3004C1532.53 70.8527 1533.19 84.819 1542.71 92.3569C1543.57 93.0445 1535.63 91.2475 1535.63 91.2475L1528.55 80.1636" fill="#F7E4CD"/>
<path fill-rule="evenodd" clip-rule="evenodd" d="M1568.59 66.1973C1568.59 66.1973 1569.11 59.4775 1570.91 59.9942C1572.72 60.511 1572.72 62.3206 1572.72 62.3206C1572.72 62.3206 1568.33 65.1638 1568.59 66.1973Z" fill="#F7E4CD"/>
<path d="M1586.95 41.5899C1586.95 41.5899 1583.31 42.3613 1582.97 45.5803C1582.64 48.7998 1586.95 46.2453 1587.62 46.0238" fill="#F7E4CD"/>
<path d="M1560.18 41.812C1560.18 41.812 1555.32 42.4771 1555.32 45.5802C1555.32 48.6841 1560.85 48.4626 1562.4 47.1325" fill="#F7E4CD"/>
<path fill-rule="evenodd" clip-rule="evenodd" d="M1530.09 56.2213C1530.09 56.2213 1521.69 51.1222 1520.8 55.9998C1519.92 60.8767 1517.93 64.4242 1522.13 69.5226L1519.25 68.636L1516.6 61.7639L1515.71 55.1133L1520.8 49.7921L1526.56 50.2357L1529.87 52.896L1530.09 56.2213Z" fill="#F7E4CD"/>
<path fill-rule="evenodd" clip-rule="evenodd" d="M1534.08 42.2549C1534.08 42.2549 1537.84 22.7466 1556.87 18.9777C1572.53 15.8752 1580.76 19.6428 1583.86 23.1895C1583.86 23.1895 1569.92 6.56361 1556.64 11.662C1543.37 16.761 1533.64 26.0719 1533.86 32.0569C1534.23 42.251 1534.08 42.2549 1534.08 42.2549Z" fill="#F7E4CD"/>
<path fill-rule="evenodd" clip-rule="evenodd" d="M1585.41 25.4062C1585.41 25.4062 1578.99 25.1848 1578.77 30.9489C1578.77 30.9489 1578.77 31.8354 1579.21 32.7219C1579.21 32.7219 1584.3 26.9578 1587.4 30.0617" fill="#F7E4CD"/>
<path fill-rule="evenodd" clip-rule="evenodd" d="M1557.31 33.3225C1557.31 33.3225 1556.21 24.4751 1548.68 29.6187C1543.81 32.9441 1544.25 37.5995 1545.14 38.486C1546.02 39.3732 1545.78 41.1589 1546.46 39.9332C1547.13 38.7075 1546.91 34.7171 1549.34 33.6091C1551.78 32.5005 1555.77 31.2621 1557.31 33.3225Z" fill="#F7E4CD"/>
<path fill-rule="evenodd" clip-rule="evenodd" d="M1536.51 93.2428L1515.71 102.554C1515.71 102.554 1524.34 136.916 1519.92 147.557L1516.82 146.449L1516.6 133.369L1510.85 108.54L1508.41 101.667L1530.09 87.0364L1536.51 93.2428Z" fill="#49728B"/>
<path fill-rule="evenodd" clip-rule="evenodd" d="M1538.65 112.248L1541.6 115.856V129.157H1538.06C1538.06 129.157 1537.62 119.846 1537.62 118.737C1537.62 117.629 1538.06 113.638 1538.06 113.638" fill="#49728B"/>
<path fill-rule="evenodd" clip-rule="evenodd" d="M1538.72 131.152L1528.77 131.595L1531.64 133.59L1538.72 134.699" fill="#49728B"/>
<path fill-rule="evenodd" clip-rule="evenodd" d="M1572.79 128.935L1580.98 128.713L1582.97 149.109L1574.56 150.217L1572.79 128.935Z" fill="#335061"/>
<path fill-rule="evenodd" clip-rule="evenodd" d="M1575.01 128.935L1587.4 128.27C1587.4 128.27 1592.48 115.412 1592.48 114.747C1592.48 114.082 1596.91 96.1251 1596.91 96.1251L1586.95 85.7062L1584.96 83.9325L1579.65 89.253V109.87L1575.01 128.935Z" fill="#335061"/>
<path fill-rule="evenodd" clip-rule="evenodd" d="M1580.54 127.383L1572.79 128.935L1573.9 135.142C1576.78 136.473 1581.64 132.925 1581.64 132.925" fill="#49728B"/>
<path fill-rule="evenodd" clip-rule="evenodd" d="M1580.76 88.588L1596.25 100.116L1596.69 94.795L1584.96 83.9325L1580.76 88.588Z" fill="#49728B"/>
<path fill-rule="evenodd" clip-rule="evenodd" d="M1546.4 172.609L1541.82 153.985L1539.54 140.243L1539.17 130.043L1559.9 128.937L1572.79 128.935L1571.62 152.214L1573.61 170.171L1573.39 173.496L1556.58 174.826L1546.4 172.609Z" fill="white"/>
<path fill-rule="evenodd" clip-rule="evenodd" d="M1569.92 128.713C1569.92 128.713 1568.81 151.769 1572.13 168.174C1572.13 168.174 1565.49 172.386 1555.76 173.494L1574.34 172.829L1576.56 171.499L1573.9 135.142L1573.24 127.382" fill="#DCD9D8"/>
<path fill-rule="evenodd" clip-rule="evenodd" d="M1583.35 147.337L1591.98 144.898L1608.35 144.012L1610.78 136.475L1606.36 123.395L1601.27 122.73L1594.19 124.946L1587.4 128.27L1583.79 127.607L1580.98 128.713" fill="white"/>
<path fill-rule="evenodd" clip-rule="evenodd" d="M1583.19 142.901C1583.19 142.901 1588.94 140.241 1589.83 140.463L1587.4 128.27L1590.27 127.162C1590.27 127.162 1592.26 138.689 1592.26 140.019C1592.26 140.019 1604.65 140.684 1605.76 140.684C1605.76 140.684 1608.41 135.585 1607.75 130.265L1610.18 137.359L1610.4 141.349L1606.87 146.67L1602.88 147.557L1596.25 147.335L1594.03 144.453L1586.29 145.561L1583.86 146.449" fill="#DCD9D8"/>
<path d="M1574.5 127.164L1569.63 114.749L1564.54 107.433C1564.54 107.433 1565.65 104.329 1567.2 104.329C1568.75 104.329 1572.29 104.329 1572.29 104.329L1577.15 106.103L1576.71 114.305L1574.5 127.164Z" fill="white"/>
<path fill-rule="evenodd" clip-rule="evenodd" d="M1575.45 122.949C1575.45 122.949 1569.25 110.979 1569.25 109.205C1569.25 109.205 1570.36 106.545 1571.91 107.21C1573.46 107.875 1576.78 109.648 1576.78 109.648V105.436L1569.25 103.884L1564.17 104.549L1572.79 124.944L1574.56 125.167" fill="#DCD9D8"/>
<path d="M1548.39 93.689L1542.26 93.0213L1536.51 91.2476V93.2428L1539.32 96.3486L1548.17 100.339" fill="white"/>
<path fill-rule="evenodd" clip-rule="evenodd" d="M1538.5 94.3534C1538.5 94.3534 1545.36 97.2358 1547.57 96.5707L1547.79 99.2283L1541.6 97.9009L1537.84 95.2406L1538.5 94.3534Z" fill="#DCD9D8"/>
<path fill-rule="evenodd" clip-rule="evenodd" d="M1583.32 105.084C1579.57 104.974 1576.18 104.527 1573.21 103.688C1573.41 102.468 1573.03 101.271 1573.34 100.392C1574.16 99.795 1575.55 99.8043 1576.8 99.664C1575.72 99.1312 1574.2 98.9204 1572.95 99.2283C1572.92 98.3817 1572.54 97.857 1572.31 97.1946C1574.43 96.4397 1579.41 91.491 1582.21 93.1297C1583.55 93.9092 1584.11 98.3611 1584.22 100.526C1584.3 102.322 1584.05 104.133 1583.32 105.084Z" fill="#D33833"/>
<path d="M1583.32 105.084C1579.57 104.974 1576.18 104.527 1573.21 103.688C1573.41 102.468 1573.03 101.271 1573.34 100.392C1574.16 99.795 1575.55 99.8043 1576.8 99.664C1575.72 99.1312 1574.2 98.9204 1572.95 99.2283C1572.92 98.3817 1572.54 97.857 1572.31 97.1946C1574.43 96.4397 1579.41 91.491 1582.21 93.1297C1583.55 93.9092 1584.11 98.3611 1584.22 100.526C1584.3 102.322 1584.05 104.133 1583.32 105.084Z" stroke="#D33833" stroke-width="2.5"/>
<path fill-rule="evenodd" clip-rule="evenodd" d="M1565.37 98.935C1565.36 99.2197 1565.35 99.5063 1565.34 99.7936C1564.17 100.565 1562.28 100.556 1560.99 101.204C1562.89 101.287 1564.38 101.745 1565.67 102.39C1565.64 103.107 1565.61 103.823 1565.59 104.54C1563.44 106.014 1561.47 108.209 1558.95 109.591C1557.75 110.244 1553.55 111.926 1552.28 111.629C1551.56 111.462 1551.49 110.566 1551.21 109.722C1550.59 107.915 1549.18 105.039 1549.06 102.319C1548.9 98.8831 1548.56 93.125 1552.25 93.8327C1555.23 94.4026 1558.7 95.7786 1561.01 97.0423C1562.42 97.8151 1563.23 98.7701 1565.37 98.935Z" fill="#D33833"/>
<path d="M1565.37 98.935C1565.36 99.2197 1565.35 99.5063 1565.34 99.7936C1564.17 100.565 1562.28 100.556 1560.99 101.204C1562.89 101.287 1564.38 101.745 1565.67 102.39C1565.64 103.107 1565.61 103.823 1565.59 104.54C1563.44 106.014 1561.47 108.209 1558.95 109.591C1557.75 110.244 1553.55 111.926 1552.28 111.629C1551.56 111.462 1551.49 110.566 1551.21 109.722C1550.59 107.915 1549.18 105.039 1549.06 102.319C1548.9 98.8831 1548.56 93.125 1552.25 93.8327C1555.23 94.4026 1558.7 95.7786 1561.01 97.0423C1562.42 97.8151 1563.23 98.7701 1565.37 98.935Z" stroke="#D33833" stroke-width="2.5"/>
<path fill-rule="evenodd" clip-rule="evenodd" d="M1567.51 103.035C1567.18 101.163 1566.8 100.629 1566.95 98.9962C1571.93 95.6683 1572.86 104.712 1567.51 103.035Z" fill="#D33833"/>
<path d="M1567.51 103.035C1567.18 101.163 1566.8 100.629 1566.95 98.9962C1571.93 95.6683 1572.86 104.712 1567.51 103.035Z" stroke="#D33833" stroke-width="2.5"/>
<path fill-rule="evenodd" clip-rule="evenodd" d="M1574.72 104.552C1574.72 104.552 1573.17 102.334 1574.28 101.669C1575.38 101.004 1576.49 101.67 1577.15 100.561C1577.82 99.4525 1577.15 98.7874 1577.37 97.4573C1577.6 96.1271 1578.7 95.905 1579.81 95.6835C1580.91 95.4621 1584.01 95.0185 1584.45 96.1271L1583.13 92.1368L1580.47 91.2502L1572.06 96.1271L1571.62 98.5659V103.443" fill="#EF3D3A"/>
<path fill-rule="evenodd" clip-rule="evenodd" d="M1551.49 111.867C1551.22 108.408 1550.94 104.953 1550.63 101.496C1550.16 96.3353 1551.87 97.2358 1556.33 97.2358C1557.01 97.2358 1560.53 98.0505 1560.78 98.5659C1561.99 101.035 1558.76 100.487 1562.17 102.349C1565.05 103.92 1570.13 101.394 1568.97 97.9008C1568.32 97.124 1565.58 97.6588 1564.6 97.1487C1562.87 96.2508 1561.14 95.353 1559.41 94.4551C1557.21 93.3119 1552.13 91.6452 1549.79 93.2427C1543.84 97.291 1550.16 107.406 1552.28 111.629" fill="#EF3D3A"/>
<path fill-rule="evenodd" clip-rule="evenodd" d="M1557.31 33.3225C1551.28 31.9152 1548.28 35.8511 1546.46 39.9332C1544.82 39.5368 1545.47 37.3129 1545.89 36.1796C1546.97 33.2054 1551.32 29.2463 1554.87 29.783C1556.4 30.0138 1558.47 31.4151 1557.31 33.3225Z" fill="#231F20"/>
<path fill-rule="evenodd" clip-rule="evenodd" d="M1586.69 40.2032C1586.79 40.2072 1586.88 40.2105 1586.98 40.2145C1588.34 43.051 1589.52 46.0558 1591.24 48.5598C1590.09 51.2473 1582.52 53.6256 1582.64 48.7999C1584.27 48.0829 1587.1 48.6535 1588.55 47.7378C1587.71 45.4306 1586.5 43.4667 1586.69 40.2032Z" fill="#231F20"/>
<path fill-rule="evenodd" clip-rule="evenodd" d="M1560.4 40.2771C1561.69 42.652 1562.11 45.1473 1563.95 46.9423C1564.78 47.7504 1566.39 48.7353 1565.59 50.9826C1565.4 51.5126 1564.04 52.6945 1563.25 52.9266C1560.38 53.7765 1553.69 53.1021 1555.95 49.5128C1558.33 49.6239 1561.52 51.0591 1563.3 49.3306C1561.93 47.1458 1559.5 42.8236 1560.4 40.2771Z" fill="#231F20"/>
<path fill-rule="evenodd" clip-rule="evenodd" d="M1585.61 64.4149C1581.29 67.1995 1576.46 70.2275 1569.37 69.5252C1567.86 68.2057 1567.28 65.2695 1568.75 63.3302C1569.52 64.6496 1569.04 67.0765 1571.17 67.4416C1575.2 68.1313 1579.88 64.9762 1582.77 63.8735C1584.56 60.8428 1582.61 59.7282 1581 57.7775C1577.69 53.7812 1573.25 48.8278 1573.41 42.8448C1574.75 41.8732 1574.87 44.3279 1575.06 44.7749C1576.79 48.8264 1581.13 54.008 1584.31 57.4756C1585.09 58.3295 1586.37 59.1489 1586.51 59.7135C1586.92 61.3556 1585.44 63.3228 1585.61 64.4149Z" fill="#231F20"/>
<path fill-rule="evenodd" clip-rule="evenodd" d="M1528.58 61.4833C1527.22 60.7078 1526.9 57.292 1525.31 57.1949C1523.04 57.0566 1523.45 61.6263 1523.46 64.2985C1521.89 62.8739 1521.62 58.4878 1522.77 56.2352C1521.46 55.5901 1520.87 56.9469 1520.14 57.4251C1521.08 50.6214 1530.08 54.2693 1528.58 61.4833Z" fill="#231F20"/>
<path fill-rule="evenodd" clip-rule="evenodd" d="M1588.37 67.2481C1586.35 71.0888 1583.5 75.3186 1577.6 75.4417C1577.48 74.2013 1577.38 72.3139 1577.6 71.567C1582.12 71.132 1584.91 68.8283 1588.37 67.2481Z" fill="#231F20"/>
<path fill-rule="evenodd" clip-rule="evenodd" d="M1560.06 69.7381C1563.83 71.7239 1570.75 71.9374 1575.88 71.7871C1576.15 72.9117 1576.14 74.3011 1576.15 75.6724C1569.57 76.0016 1561.78 74.3689 1560.06 69.7381Z" fill="#231F20"/>
<path fill-rule="evenodd" clip-rule="evenodd" d="M1559.34 73.4411C1561.95 79.998 1570.9 79.2432 1578.46 79.0623C1578.13 79.9135 1577.41 80.9191 1576.51 81.2829C1574.09 82.2699 1567.41 83.0187 1564.05 81.2304C1561.92 80.0951 1560.55 77.5299 1559.38 76.0262C1558.82 75.3 1556.01 73.4451 1559.34 73.4411Z" fill="#231F20"/>
<path fill-rule="evenodd" clip-rule="evenodd" d="M1585.3 109.609C1582.24 114.858 1579.31 120.249 1575.68 124.879C1577.21 120.397 1577.86 112.895 1578.09 107.177C1581.27 105.684 1583.99 107.512 1585.3 109.609Z" fill="#81B0C4"/>
<path fill-rule="evenodd" clip-rule="evenodd" d="M1601.76 128.474C1598.33 129.161 1595.93 132.495 1592.59 132.281C1594.42 129.688 1597.64 128.595 1601.76 128.474Z" fill="#231F20"/>
<path fill-rule="evenodd" clip-rule="evenodd" d="M1603.27 133.844C1600.48 134.139 1597.2 134.592 1594.37 134.358C1595.71 132.307 1600.87 133.015 1603.27 133.844Z" fill="#231F20"/>
<path fill-rule="evenodd" clip-rule="evenodd" d="M1604.23 138.473C1601.1 138.541 1597.2 138.478 1594.22 138.228C1595.98 136.33 1602.2 137.523 1604.23 138.473Z" fill="#231F20"/>
<path fill-rule="evenodd" clip-rule="evenodd" d="M1579.4 151.142C1579.85 155.089 1581.41 159.089 1581.21 163.412C1579.48 163.998 1578.48 164.51 1576.16 164.507C1575.99 160.833 1575.5 155.217 1575.65 151.715C1576.79 151.79 1578.48 150.896 1579.4 151.142Z" fill="#DCD9D8"/>
<path fill-rule="evenodd" clip-rule="evenodd" d="M1574.34 92.9674C1572.76 93.9976 1571.42 95.2838 1569.91 96.3838C1566.56 96.5501 1564.73 96.1511 1562.26 94.221C1562.3 94.0661 1562.55 94.1353 1562.56 93.945C1566.15 95.5485 1570.71 93.292 1574.34 92.9674Z" fill="#F0D6B7"/>
<path fill-rule="evenodd" clip-rule="evenodd" d="M1555.49 117.494C1556.48 113.21 1560.34 110.991 1563.85 108.632C1567.48 113.24 1569.68 119.166 1572.11 124.884C1566.37 123.152 1560.51 120.342 1555.49 117.494Z" fill="#81B0C4"/>
<path fill-rule="evenodd" clip-rule="evenodd" d="M1575.65 151.715C1575.5 155.217 1575.99 160.833 1576.16 164.507C1578.48 164.51 1579.48 163.998 1581.21 163.412C1581.41 159.089 1579.85 155.089 1579.4 151.142C1578.48 150.896 1576.79 151.79 1575.65 151.715ZM1539.47 131.797C1541 145.911 1543.22 157.776 1547.29 170.275C1556.32 173.024 1567.22 173.263 1575.2 170.783C1573.73 163.729 1574.37 155.14 1573.52 147.612C1572.87 141.954 1573.2 136.261 1572.32 130.488C1562.64 128.471 1548.96 130.017 1539.47 131.797ZM1574.6 130.577C1574.52 136.639 1574.87 142.618 1575.34 148.688C1577.66 148.339 1579.24 148.105 1581.39 147.631C1580.69 141.788 1580.78 135.213 1579.35 130.044C1577.7 130.06 1576.25 130.025 1574.6 130.577ZM1586.39 129.6C1585.29 129.347 1584 129.59 1582.95 129.61C1583.44 134.552 1584.65 140.005 1585.07 145.192C1586.73 145.243 1587.61 144.46 1588.97 144.197C1589.05 139.644 1588.58 133.371 1586.39 129.6ZM1604.23 145.936C1607.69 145.095 1609.86 140.855 1608.89 136.501C1608.24 133.575 1607.09 128.065 1605.85 126.193C1604.94 124.808 1602.46 122.995 1600.49 124.264C1597.27 126.328 1591.6 126.927 1589.26 129.425C1590.43 133.349 1590.8 138.738 1591.28 143.71C1595.3 143.961 1600.25 142.602 1603.59 144.044C1601.26 144.802 1598.23 144.808 1596.21 145.911C1597.86 146.709 1601.72 146.548 1604.23 145.936ZM1572.11 124.884C1569.68 119.166 1567.48 113.24 1563.85 108.632C1560.34 110.991 1556.48 113.21 1555.49 117.494C1560.51 120.342 1566.37 123.152 1572.11 124.884ZM1578.09 107.177C1577.86 112.895 1577.21 120.397 1575.68 124.879C1579.31 120.249 1582.24 114.858 1585.3 109.609C1583.99 107.512 1581.27 105.684 1578.09 107.177ZM1571.31 104.762C1569.93 104.614 1568.77 106.346 1566.98 105.597C1566.57 106.051 1566.2 106.542 1565.78 106.985C1569.73 111.752 1571.52 118.516 1574.57 124.118C1576.21 118.737 1576.02 112.841 1576.38 106.967C1574.13 107.11 1572.88 104.93 1571.31 104.762ZM1566.95 98.9962C1566.8 100.629 1567.18 101.163 1567.51 103.034C1572.86 104.712 1571.93 95.6683 1566.95 98.9962ZM1561.01 97.0423C1558.7 95.7786 1555.23 94.4026 1552.25 93.8327C1548.56 93.1244 1548.9 98.8832 1549.06 102.319C1549.18 105.039 1550.59 107.915 1551.21 109.722C1551.49 110.566 1551.56 111.462 1552.28 111.629C1553.55 111.926 1557.75 110.244 1558.95 109.591C1561.47 108.209 1563.44 106.014 1565.59 104.54C1565.61 103.823 1565.64 103.107 1565.67 102.39C1564.38 101.745 1562.89 101.287 1560.99 101.204C1562.28 100.556 1564.17 100.565 1565.34 99.7936C1565.35 99.5063 1565.36 99.2197 1565.37 98.935C1563.23 98.7701 1562.42 97.8151 1561.01 97.0423ZM1538.96 93.0299C1537.05 94.9786 1544.33 97.6348 1546.66 97.7778C1546.64 96.5448 1547.36 95.3823 1547.21 94.4977C1544.46 94.0129 1540.83 94.3328 1538.96 93.0299ZM1562.56 93.9451C1562.55 94.1353 1562.3 94.0661 1562.26 94.2211C1564.73 96.1511 1566.56 96.5501 1569.91 96.3839C1571.42 95.2838 1572.76 93.9976 1574.34 92.9674C1570.71 93.292 1566.15 95.5485 1562.56 93.9451ZM1584.22 100.526C1584.11 98.3611 1583.55 93.9092 1582.21 93.1297C1579.41 91.4903 1574.43 96.4397 1572.31 97.1946C1572.54 97.857 1572.92 98.3817 1572.95 99.2283C1574.2 98.9204 1575.72 99.1312 1576.8 99.664C1575.55 99.8043 1574.16 99.795 1573.34 100.392C1573.03 101.271 1573.41 102.468 1573.21 103.688C1576.18 104.527 1579.57 104.974 1583.32 105.084C1584.05 104.133 1584.3 102.322 1584.22 100.526ZM1535.74 94.9147C1535.14 94.4851 1531.07 89.1799 1530.51 89.4C1523.15 92.3097 1516.26 97.3409 1510.11 102.099C1515.98 114.712 1518.34 130.164 1518.76 145.057C1525.48 148.206 1531.38 152.746 1540.5 153.22C1539.45 145.74 1538.48 139.066 1537.88 132.023C1535.59 131.055 1532.31 132.067 1530.16 131.723C1530.14 129.134 1533.44 130.589 1533.71 128.848C1533.92 127.531 1531.9 127.431 1532.56 125.357C1534.23 125.968 1535.11 127.317 1536.9 127.823C1538.53 124.242 1536.88 117.907 1537.11 114.914C1537.16 114.352 1537.39 111.801 1538.65 112.248C1539.76 112.645 1538.59 119.033 1538.71 121.866C1538.82 124.476 1538.39 127.001 1539.45 128.639C1548.26 127.437 1557.21 126.66 1566.75 126.398C1564.65 125.496 1562.16 124.643 1559.43 123.1C1557.94 122.264 1553.28 120.523 1552.85 119.114C1552.17 116.868 1554.64 115.671 1555.06 113.746C1550.61 116.177 1549.75 111.416 1548.69 108.044C1547.74 104.989 1547.2 102.707 1546.96 100.946C1543.13 99.1153 1539.04 97.2617 1535.74 94.9147ZM1580.33 90.0418C1586.46 87.061 1587.57 101.182 1585.16 105.731C1585.53 107.088 1586.81 107.607 1587.33 108.827C1583.91 114.972 1580.11 120.709 1576.61 126.781C1579.21 125.161 1582.92 126.491 1585.98 125.278C1587.1 124.835 1587.91 122.271 1588.75 120.22C1591.08 114.577 1593.53 107.463 1594.61 102.078C1594.86 100.851 1595.53 98.1775 1595.38 97.0855C1595.11 95.1302 1592.46 93.6804 1591.12 92.4713C1588.64 90.238 1587.07 88.2727 1584.49 86.1844C1583.44 87.7367 1581.18 88.7795 1580.33 90.0418ZM1521.71 35.5278C1518.78 38.7507 1519.4 44.7895 1519.75 49.0858C1525.03 45.7552 1532.05 49.3492 1531.98 55.0142C1534.5 54.947 1532.92 51.8571 1532.47 49.8666C1530.98 43.3649 1534.98 36.3013 1532.65 30.3556C1528.12 30.6995 1524.41 32.5517 1521.71 35.5278ZM1542.62 16.8222C1536.01 18.7017 1527.52 23.5201 1524.81 29.4771C1526.91 29.1705 1528.37 28.1064 1530.45 27.9747C1531.24 27.9235 1532.26 28.3046 1533.17 28.0798C1534.96 27.6329 1536.48 23.5933 1537.84 22.0902C1539.16 20.6224 1540.75 19.9953 1541.84 18.6572C1542.54 18.3193 1543.57 18.3426 1543.61 17.2911C1543.31 16.9666 1542.99 16.7192 1542.62 16.8222ZM1577.07 18.59C1570.2 14.7067 1558.58 11.7857 1551.27 15.4356C1545.38 18.3811 1537.41 23.2547 1534.69 29.4305C1537.23 35.3902 1533.94 40.851 1533.73 46.9018C1533.62 50.1213 1535.24 52.9319 1535.36 56.4368C1534.5 57.8727 1531.84 58.0496 1530.01 57.9511C1529.39 54.8506 1528.3 51.3657 1525.12 51.0158C1520.61 50.5217 1517.31 54.2607 1517.11 58.1679C1516.87 62.7629 1520.63 70.3785 1525.97 69.8498C1528.03 69.6456 1528.53 67.5753 1530.78 67.5966C1532 70.03 1528.9 70.7942 1528.58 72.5347C1528.5 72.9842 1528.84 74.7413 1529.04 75.5654C1530.01 79.5777 1532.17 84.7705 1534.29 87.8252C1536.99 91.6998 1542.3 92.2837 1548 92.6635C1549.02 90.4641 1552.77 90.645 1555.22 91.2203C1552.29 90.0571 1549.56 87.2372 1547.3 84.7412C1544.71 81.8775 1542.08 78.8056 1541.95 75.0626C1546.85 81.8768 1550.9 87.8278 1559.81 90.8252C1566.56 93.0918 1574.44 89.7864 1579.62 86.1399C1581.77 84.6242 1583.05 82.2193 1584.58 80.018C1590.3 71.7745 1592.97 60.0082 1592.38 48.6037C1592.14 43.9003 1592.15 39.213 1590.58 36.0486C1588.93 32.7399 1583.36 29.7797 1580.1 32.7725C1579.5 29.5549 1582.81 27.565 1586.71 28.7229C1583.93 25.1335 1581.02 20.8206 1577.07 18.59ZM1589.87 124.712C1595.24 122.039 1605.27 117.516 1608.63 124.722C1609.87 127.379 1611.33 131.869 1611.97 134.611C1612.88 138.48 1610.99 146.611 1607.02 147.909C1603.51 149.056 1599.42 148.986 1595.2 148.136C1594.71 147.722 1594.15 146.999 1593.77 146.246C1590.75 146.129 1587.93 146.409 1585.55 147.65C1585.77 149.884 1584.26 150.243 1582.85 150.703C1581.8 154.867 1584.95 160.304 1584.19 164.101C1583.66 166.806 1580.34 167.225 1577.9 167.731C1577.82 169.234 1578 170.489 1578.17 171.76C1577.61 173.821 1575.11 174.994 1572.73 175.282C1564.93 176.222 1553.08 176.645 1545.57 173.94C1543.48 168.791 1541.83 162.529 1540.08 156.649C1532.76 157.433 1526.84 153.484 1521.26 150.896C1519.32 149.999 1516.65 149.504 1515.93 147.962C1515.23 146.47 1515.52 143.609 1515.34 140.907C1514.9 134.006 1514.52 127.349 1512.7 120.283C1511.89 117.112 1510.46 114.314 1509.47 111.259C1508.55 108.427 1506.95 104.927 1506.53 102.103C1505.91 97.9182 1509.84 97.6854 1512.36 95.8718C1516.24 93.0672 1519.3 91.5162 1523.51 88.985C1524.75 88.2355 1528.51 86.3381 1528.94 85.4642C1529.79 83.7317 1527.48 81.2889 1526.87 79.9308C1525.89 77.7833 1525.38 75.9591 1525.24 73.8402C1521.71 73.2809 1519.03 71.1746 1517.41 68.7997C1514.74 64.8691 1512.88 57.5973 1515.2 52.066C1515.38 51.6304 1516.28 50.7738 1516.42 50.1047C1516.68 48.7872 1515.92 47.0354 1515.87 45.6341C1515.63 38.4448 1517.09 32.2504 1521.92 30.0823C1523.88 22.2551 1530.9 19.6528 1537.51 15.7628C1539.98 14.309 1542.7 13.3799 1545.52 12.3424C1555.61 8.62 1571.1 9.32098 1579.48 15.6697C1583.03 18.3619 1588.71 24.0462 1590.74 28.1616C1596.1 39.0267 1595.72 57.185 1591.97 70.4018C1591.46 72.1762 1590.73 74.7846 1589.71 76.9161C1589 78.4045 1586.79 81.3827 1587.06 82.6968C1587.33 84.0556 1592.1 87.6848 1593.12 88.6731C1594.97 90.4535 1598.47 92.8165 1598.75 95.063C1599.05 97.4539 1597.7 100.725 1597.01 103.032C1594.71 110.731 1592.47 117.848 1589.87 124.712Z" fill="#231F20"/>
<path fill-rule="evenodd" clip-rule="evenodd" d="M1554.06 71.4153C1554.35 71.0269 1555.95 70.437 1558.19 71.5178C1558.19 71.5178 1555.54 71.9614 1555.76 76.3967L1554.65 76.1745C1554.65 76.1745 1553.51 72.1529 1554.06 71.4153Z" fill="#F7E4CD"/>
<path fill-rule="evenodd" clip-rule="evenodd" d="M1573.46 109.537C1573.46 110.211 1572.91 110.756 1572.24 110.756C1571.57 110.756 1571.02 110.211 1571.02 109.537C1571.02 108.864 1571.57 108.318 1572.24 108.318C1572.91 108.318 1573.46 108.864 1573.46 109.537Z" fill="#1D1919"/>
<path fill-rule="evenodd" clip-rule="evenodd" d="M1574.67 115.191C1574.67 115.864 1574.13 116.409 1573.46 116.409C1572.79 116.409 1572.24 115.864 1572.24 115.191C1572.24 114.517 1572.79 113.971 1573.46 113.971C1574.13 113.971 1574.67 114.517 1574.67 115.191Z" fill="#1D1919"/>
</g>
<rect y="4" width="186" height="186" rx="30" fill="#CDCDCD"/>
<g clip-path="url(#clip1_0_1)">
<path d="M109.408 86.7686C105.844 86.7686 103.19 88.5237 103.19 92.7481C103.19 95.9307 104.939 98.1406 109.216 98.1406C112.84 98.1406 115.303 95.9978 115.303 92.6158C115.303 88.7837 113.099 86.7686 109.408 86.7686ZM102.283 116.596C101.439 117.634 100.599 118.738 100.599 120.039C100.599 122.637 103.901 123.418 108.437 123.418C112.193 123.418 117.311 123.154 117.311 119.65C117.311 117.567 114.849 117.439 111.738 117.243L102.283 116.596ZM121.456 86.9646C122.62 88.4592 123.853 90.5394 123.853 93.5279C123.853 100.74 118.217 104.963 110.057 104.963C107.982 104.963 106.104 104.704 104.939 104.379L102.801 107.822L109.148 108.212C120.356 108.928 126.96 109.254 126.96 117.892C126.96 125.366 120.42 129.588 109.148 129.588C97.4241 129.588 92.9543 126.599 92.9543 121.466C92.9543 118.542 94.2501 116.985 96.5174 114.837C94.3793 113.931 93.6675 112.308 93.6675 110.552C93.6675 109.121 94.3793 107.823 95.5471 106.587C96.7123 105.354 98.0073 104.118 99.5622 102.689C96.3888 101.129 93.9909 97.7504 93.9909 92.9409C93.9909 85.4701 98.9147 80.3388 108.823 80.3388C111.61 80.3388 113.294 80.5955 114.784 80.9883H127.417V86.5092L121.456 86.9646ZM138.813 75.157C135.12 75.157 132.982 73.011 132.982 69.3059C132.982 65.6059 135.119 63.5895 138.813 63.5895C142.569 63.5895 144.707 65.6059 144.707 69.3059C144.707 73.011 142.57 75.157 138.813 75.157ZM130.455 114.205V109.075L133.76 108.621C134.667 108.49 134.796 108.296 134.796 107.319V88.2158C134.796 87.5031 134.602 87.0458 133.952 86.8529L130.455 85.617L131.167 80.3554H144.577V107.319C144.577 108.36 144.639 108.49 145.614 108.622L148.917 109.075V114.205H130.455ZM174.533 111.686C171.747 113.05 167.666 114.284 163.973 114.284C156.265 114.284 153.351 111.169 153.351 103.822V86.8005C153.351 86.4109 153.351 86.1509 152.831 86.1509H148.297V80.3662C153.999 79.7148 156.265 76.8559 156.977 69.7734H163.132V79.0026C163.132 79.4561 163.132 79.6522 163.651 79.6522H172.783V86.1497H163.132V101.678C163.132 105.512 164.04 107.005 167.536 107.005C169.352 107.005 171.228 106.552 172.782 105.967L174.533 111.686Z" fill="#2F2707"/>
<path d="M78.5556 94.6348L48.938 64.927C48.5324 64.52 48.0508 64.1971 47.5208 63.9768C46.9907 63.7566 46.4226 63.6432 45.8489 63.6432C45.2752 63.6432 44.7071 63.7566 44.1771 63.9768C43.6471 64.1971 43.1655 64.52 42.7599 64.927L36.6098 71.0968L44.4115 78.9222C45.3286 78.6093 46.3147 78.5603 47.258 78.7808C48.2014 79.0013 49.0644 79.4823 49.7492 80.1695C50.4376 80.8611 50.9183 81.7329 51.1363 82.6855C51.3543 83.638 51.3007 84.6328 50.9818 85.5563L58.4996 93.0987C60.3187 92.4703 62.4179 92.8771 63.8703 94.3365C64.3532 94.8206 64.7362 95.3954 64.9976 96.028C65.2589 96.6606 65.3934 97.3386 65.3934 98.0234C65.3934 98.7082 65.2589 99.3863 64.9976 100.019C64.7362 100.652 64.3532 101.226 63.8703 101.71C63.0208 102.563 61.9028 103.095 60.7067 103.214C59.5106 103.333 58.3103 103.033 57.3101 102.364C56.3099 101.695 55.5716 100.7 55.2209 99.5463C54.8702 98.393 54.9288 97.1535 55.3867 96.0387L48.3751 89.0053L48.3745 107.515C48.8828 107.767 49.347 108.1 49.7492 108.501C50.232 108.985 50.615 109.56 50.8763 110.193C51.1376 110.825 51.2721 111.504 51.2721 112.189C51.2721 112.873 51.1376 113.552 50.8763 114.184C50.615 114.817 50.232 115.392 49.7492 115.876C47.718 117.913 44.4262 117.913 42.3982 115.876C41.7924 115.269 41.3455 114.521 41.0974 113.698C40.8492 112.876 40.8074 112.005 40.9758 111.163C41.1442 110.32 41.5174 109.533 42.0624 108.87C42.6074 108.207 43.3072 107.69 44.0996 107.363V88.6815C43.4621 88.4204 42.8835 88.0333 42.3982 87.5433C40.8599 86.0021 40.49 83.738 41.2783 81.8429L33.588 74.1274L13.2805 94.4968C12.8747 94.9039 12.5528 95.3871 12.3331 95.919C12.1135 96.4508 12.0005 97.0208 12.0005 97.5965C12.0005 98.1721 12.1135 98.7421 12.3331 99.274C12.5528 99.8058 12.8747 100.289 13.2805 100.696L42.8981 130.405C43.7174 131.226 44.8285 131.688 45.9871 131.688C47.1457 131.688 48.2568 131.226 49.0761 130.405L78.5556 100.835C79.3749 100.012 79.8351 98.8973 79.8351 97.7347C79.8351 96.5721 79.3749 95.4571 78.5556 94.6348Z" fill="#DE4C36"/>
</g>
<rect x="725" y="1" width="186" height="186" rx="30" fill="#CDCDCD"/>
<g clip-path="url(#clip2_0_1)">
<path fill-rule="evenodd" clip-rule="evenodd" d="M765.627 135.955V126.368C765.627 125.109 766.415 124.097 767.719 124.097H768.08C769.384 124.097 770.168 125.11 770.168 126.368V146.552C770.168 151.474 767.736 155.39 763.498 157.885C761.557 159.035 759.342 159.64 757.085 159.634H756.185C751.262 159.634 747.351 157.201 744.852 152.966C743.7 151.026 743.096 148.809 743.103 146.552V145.653C743.103 140.729 745.536 136.815 749.77 134.315C751.711 133.163 753.928 132.559 756.185 132.566H757.085C760.417 132.566 763.244 133.858 765.627 135.955ZM747.643 146.102C747.643 149.657 749.366 152.33 752.482 154.035C753.741 154.724 755.109 155.095 756.546 155.095C760.036 155.095 762.625 153.448 764.41 150.491C765.24 149.115 765.627 147.61 765.627 146.01C765.627 142.928 764.168 140.522 761.684 138.736C760.179 137.653 758.483 137.11 756.635 137.11C752.831 137.11 750.093 139.032 748.45 142.445C747.896 143.6 747.643 144.825 747.643 146.102ZM785.919 132.566H786.548C791.809 132.566 795.809 135.118 798.345 139.71C799.358 141.547 799.901 143.552 799.901 145.653V146.552C799.901 151.474 797.474 155.396 793.23 157.886C791.265 159.038 789.095 159.634 786.818 159.634H785.919C780.996 159.634 777.083 157.201 774.586 152.966C773.433 151.026 772.828 148.809 772.835 146.552V145.653C772.835 140.729 775.278 136.827 779.502 134.317C781.465 133.15 783.637 132.566 785.919 132.566ZM777.376 146.102C777.376 149.553 779.069 152.092 781.984 153.877C783.353 154.715 784.861 155.095 786.46 155.095C789.87 155.095 792.39 153.365 794.145 150.487C794.981 149.115 795.36 147.607 795.36 146.01C795.36 142.8 793.814 140.349 791.172 138.572C789.724 137.598 788.112 137.11 786.368 137.11C782.564 137.11 779.827 139.032 778.184 142.445C777.629 143.6 777.376 144.825 777.376 146.102ZM818.776 137.472C818.09 137.151 816.807 137.045 816.066 137.017C812.273 136.874 809.529 139.01 807.918 142.356C807.362 143.511 807.109 144.732 807.109 146.01C807.109 149.898 809.151 152.621 812.622 154.281C813.89 154.887 815.527 155.002 816.913 155.002C818.131 155.002 819.854 154.255 820.936 153.742L821.123 153.653H821.963L822.055 153.671C823.088 153.886 823.867 154.541 823.867 155.652V156.101C823.867 158.866 818.815 159.498 816.887 159.633C810.085 160.104 804.997 156.368 803.057 149.879C802.721 148.752 802.569 147.633 802.569 146.459V145.561C802.569 140.637 805.012 136.737 809.235 134.229C811.198 133.063 813.37 132.477 815.651 132.477H816.551C818.971 132.477 821.2 133.164 823.198 134.529L823.362 134.642L823.466 134.813C823.681 135.171 823.867 135.585 823.867 136.01V136.459C823.867 137.618 823 138.242 821.953 138.443L821.867 138.459H821.598C820.921 138.459 819.38 137.757 818.776 137.472ZM833.503 140.547C835.266 138.781 837.036 137.018 838.826 135.282C839.325 134.797 841.213 132.746 841.957 132.746H842.77L842.863 132.766C843.898 132.981 844.674 133.636 844.674 134.75V135.198C844.674 135.958 843.785 136.84 843.294 137.36C842.251 138.466 841.153 139.535 840.086 140.618L834.6 146.187C836.962 148.554 839.322 150.923 841.664 153.308C842.314 153.966 842.959 154.63 843.598 155.298C843.824 155.535 844.157 155.83 844.346 156.159C844.549 156.467 844.674 156.815 844.674 157.186V157.654L844.648 157.763C844.393 158.799 843.736 159.634 842.588 159.634H842.226C841.475 159.634 840.627 158.785 840.112 158.299C839.052 157.299 838.028 156.248 836.988 155.227L833.503 151.805V157.274C833.503 158.534 832.714 159.546 831.412 159.546H831.054C829.75 159.546 828.962 158.534 828.962 157.274V126.456C828.962 125.196 829.75 124.189 831.054 124.189H831.412C832.714 124.189 833.503 125.196 833.503 126.456V140.547ZM890.091 132.746H890.542C891.904 132.746 892.812 133.664 892.812 135.018C892.812 136.898 891.015 137.379 889.461 137.379C887.422 137.379 885.475 138.613 884.069 139.998C882.317 141.726 881.55 143.939 881.55 146.372V157.363C881.55 158.623 880.763 159.634 879.458 159.634H879.099C877.794 159.634 877.008 158.624 877.008 157.363V145.741C877.008 141.278 879.181 137.634 882.803 135.079C884.966 133.553 887.443 132.746 890.091 132.746ZM857.821 154.529C859.473 155.106 861.357 155.024 863.052 154.728C863.919 154.36 866.137 153.392 866.952 153.534L867.079 153.556L867.196 153.613C867.695 153.855 868.17 154.196 868.424 154.703C869.018 155.891 868.733 157.085 867.566 157.759L867.177 157.984C862.871 160.469 858.29 160.125 853.996 157.803C851.944 156.694 850.374 155.046 849.215 153.038L848.945 152.569C846.179 147.781 846.553 142.744 849.671 138.191C850.747 136.617 852.154 135.401 853.799 134.45L854.421 134.091C858.477 131.75 862.824 131.91 866.99 133.965C869.23 135.07 871.044 136.717 872.295 138.883L872.52 139.274C873.428 140.847 872.251 142.219 871.037 143.156C869.627 144.244 868.204 145.553 866.853 146.719C863.84 149.32 860.831 151.926 857.821 154.529ZM853.921 151.79C857.291 148.902 860.661 146.01 864.021 143.109C865.17 142.119 866.429 141.091 867.568 140.05C866.654 138.898 865.127 138.068 863.83 137.573C861.211 136.575 858.628 136.91 856.227 138.296C853.083 140.112 851.744 143.002 851.861 146.599C851.908 148.016 852.289 149.381 853.041 150.586C853.306 151.011 853.602 151.41 853.921 151.79ZM829.419 60.8078H842.817V74.5041H849.591C852.72 74.5041 855.937 73.9469 858.9 72.9432C860.356 72.4492 861.989 71.7625 863.425 70.8982C861.534 68.4291 860.568 65.3113 860.285 62.2381C859.898 58.0574 860.742 52.6164 863.571 49.3445L864.979 47.7156L866.657 49.065C870.883 52.4594 874.436 57.2031 875.063 62.6107C880.15 61.1143 886.124 61.4682 890.608 64.0563L892.448 65.118L891.48 67.0082C887.687 74.4098 879.758 76.7031 872.006 76.2971C860.406 105.189 835.152 118.867 804.531 118.867C788.711 118.867 774.197 112.953 765.932 98.9178L765.796 98.6893L764.592 96.2389C761.799 90.0607 760.871 83.2926 761.5 76.5297L761.689 74.5041H773.146V60.8078H786.544V47.4098H813.341V34.0117H829.419V60.8078Z" fill="#364548"/>
<path fill-rule="evenodd" clip-rule="evenodd" d="M872.826 65.875C873.724 58.893 868.5 53.4092 865.259 50.8053C861.525 55.1225 860.945 66.4369 866.803 71.2006C863.534 74.1045 856.645 76.7365 849.591 76.7365H763.725C763.039 84.1 764.332 90.881 767.284 96.6848L768.261 98.4719C768.879 99.5208 769.555 100.535 770.285 101.509C773.816 101.736 777.071 101.814 780.048 101.748H780.049C785.901 101.62 790.676 100.928 794.295 99.6742C794.551 99.5946 794.827 99.6177 795.066 99.7385C795.306 99.8593 795.488 100.068 795.576 100.322C795.664 100.575 795.65 100.852 795.537 101.095C795.424 101.338 795.221 101.527 794.97 101.623C794.489 101.791 793.987 101.946 793.469 102.095H793.467C790.618 102.909 787.562 103.456 783.62 103.699C783.854 103.703 783.376 103.734 783.375 103.734C783.241 103.743 783.072 103.762 782.938 103.769C781.386 103.857 779.711 103.875 777.999 103.875C776.127 103.875 774.283 103.84 772.221 103.734L772.168 103.769C779.322 111.811 790.509 116.634 804.532 116.634C834.208 116.634 859.38 103.478 870.527 73.9439C878.435 74.7555 886.035 72.7387 889.492 65.9898C883.985 62.8123 876.904 63.8254 872.826 65.875Z" fill="#22A0C8"/>
<path fill-rule="evenodd" clip-rule="evenodd" d="M872.826 65.875C873.724 58.893 868.5 53.4092 865.259 50.8053C861.525 55.1225 860.945 66.4369 866.803 71.2006C863.534 74.1045 856.645 76.7365 849.591 76.7365H768.809C768.459 88.0135 772.644 96.5734 780.048 101.748H780.049C785.901 101.62 790.676 100.928 794.295 99.6742C794.551 99.5946 794.827 99.6177 795.066 99.7385C795.306 99.8593 795.488 100.068 795.576 100.322C795.664 100.575 795.65 100.852 795.537 101.095C795.424 101.338 795.221 101.527 794.97 101.623C794.489 101.791 793.987 101.946 793.469 102.095H793.467C790.618 102.909 787.3 103.526 783.358 103.769C783.356 103.769 783.262 103.679 783.261 103.679C793.361 108.859 808.005 108.841 824.795 102.391C843.621 95.1584 861.14 81.3795 873.363 65.6195C873.179 65.7027 873 65.7877 872.826 65.875Z" fill="#37B1D9"/>
<path fill-rule="evenodd" clip-rule="evenodd" d="M763.886 85.6832C764.419 89.6277 765.573 93.3209 767.284 96.6848L768.261 98.4719C768.879 99.5209 769.555 100.535 770.285 101.509C773.816 101.736 777.071 101.814 780.049 101.748C785.901 101.62 790.676 100.928 794.295 99.6742C794.551 99.5946 794.827 99.6177 795.066 99.7385C795.306 99.8593 795.488 100.068 795.576 100.322C795.664 100.575 795.65 100.852 795.537 101.095C795.424 101.338 795.221 101.527 794.97 101.623C794.489 101.791 793.987 101.946 793.469 102.095H793.467C790.618 102.909 787.317 103.491 783.375 103.735C783.24 103.743 783.004 103.745 782.867 103.752C781.317 103.839 779.659 103.892 777.946 103.892C776.074 103.892 774.16 103.857 772.099 103.752C779.253 111.793 790.509 116.634 804.532 116.634C829.938 116.634 852.042 106.99 864.871 85.6832H763.886Z" fill="#1B81A5"/>
<path fill-rule="evenodd" clip-rule="evenodd" d="M769.582 85.6832C771.101 92.609 774.751 98.0459 780.049 101.748C785.901 101.62 790.676 100.928 794.295 99.6742C794.551 99.5946 794.827 99.6177 795.066 99.7385C795.306 99.8593 795.488 100.068 795.576 100.322C795.664 100.575 795.65 100.852 795.537 101.095C795.424 101.338 795.221 101.527 794.97 101.623C794.489 101.791 793.987 101.946 793.469 102.095H793.467C790.618 102.909 787.248 103.491 783.305 103.735C793.404 108.914 808.006 108.84 824.795 102.391C834.952 98.4889 844.727 92.6799 853.497 85.6832H769.582Z" fill="#1D91B4"/>
<path fill-rule="evenodd" clip-rule="evenodd" d="M775.379 63.0408H786.991V74.6529H775.379V63.0408ZM776.346 64.0088H777.263V73.6856H776.346V64.0088ZM778.069 64.0088H779.022V73.6856H778.07L778.069 64.0088ZM779.828 64.0088H780.781V73.6856H779.828V64.0088ZM781.588 64.0088H782.541V73.6856H781.588V64.0088ZM783.348 64.0088H784.3V73.6856H783.348V64.0088ZM785.107 64.0088H786.024V73.6856H785.107V64.0088ZM788.777 49.6428H800.39V61.2543H788.776L788.777 49.6428ZM789.745 50.6108H790.661V60.2869H789.745V50.6108ZM791.468 50.6108H792.42V60.2869H791.468L791.468 50.6108ZM793.227 50.6108H794.179V60.2869H793.227V50.6108ZM794.986 50.6108H795.939V60.2869H794.986V50.6108ZM796.746 50.6108H797.699V60.2869H796.746V50.6108ZM798.505 50.6108H799.422V60.2869H798.505V50.6108Z" fill="#23A3C2"/>
<path fill-rule="evenodd" clip-rule="evenodd" d="M788.777 63.0408H800.39V74.6529H788.776L788.777 63.0408ZM789.745 64.0088H790.661V73.6856H789.745V64.0088ZM791.468 64.0088H792.42V73.6856H791.468L791.468 64.0088ZM793.227 64.0088H794.179V73.6856H793.227V64.0088ZM794.986 64.0088H795.939V73.6856H794.986V64.0088ZM796.746 64.0088H797.699V73.6856H796.746V64.0088ZM798.505 64.0088H799.422V73.6856H798.505V64.0088Z" fill="#34BBDE"/>
<path fill-rule="evenodd" clip-rule="evenodd" d="M802.176 63.0408H813.788V74.6529H802.176V63.0408ZM803.143 64.0088H804.059V73.6856H803.143V64.0088ZM804.866 64.0088H805.818V73.6856H804.866V64.0088ZM806.625 64.0088H807.578V73.6856H806.625V64.0088ZM808.385 64.0088H809.338V73.6856H808.385V64.0088ZM810.144 64.0088H811.098V73.6856H810.144V64.0088ZM811.903 64.0088H812.82V73.6856H811.903V64.0088Z" fill="#23A3C2"/>
<path fill-rule="evenodd" clip-rule="evenodd" d="M802.176 49.6428H813.788V61.2543H802.176V49.6428ZM803.143 50.6108H804.059V60.2869H803.143V50.6108ZM804.866 50.6108H805.818V60.2869H804.866V50.6108ZM806.625 50.6108H807.578V60.2869H806.625V50.6108ZM808.385 50.6108H809.338V60.2869H808.385V50.6108ZM810.144 50.6108H811.098V60.2869H810.144V50.6108ZM811.903 50.6108H812.82V60.2869H811.903V50.6108ZM815.574 63.0408H827.186V74.6529H815.574V63.0408ZM816.542 64.0088H817.457V73.6856H816.542V64.0088ZM818.264 64.0088H819.217V73.6856H818.264V64.0088ZM820.023 64.0088H820.976V73.6856H820.023V64.0088ZM821.783 64.0088H822.736V73.6856H821.783V64.0088ZM823.542 64.0088H824.496V73.6856H823.542V64.0088ZM825.302 64.0088H826.218V73.6856H825.302V64.0088Z" fill="#34BBDE"/>
<path fill-rule="evenodd" clip-rule="evenodd" d="M815.574 49.6428H827.186V61.2543H815.574V49.6428ZM816.542 50.6108H817.457V60.2869H816.542V50.6108ZM818.264 50.6108H819.217V60.2869H818.264V50.6108ZM820.023 50.6108H820.976V60.2869H820.023V50.6108ZM821.783 50.6108H822.736V60.2869H821.783V50.6108ZM823.542 50.6108H824.496V60.2869H823.542V50.6108ZM825.302 50.6108H826.218V60.2869H825.302V50.6108Z" fill="#23A3C2"/>
<path fill-rule="evenodd" clip-rule="evenodd" d="M815.574 36.2441H827.186V47.8574H815.574V36.2441ZM816.542 37.2115H817.457V46.8889H816.542V37.2115ZM818.264 37.2115H819.217V46.8889H818.264V37.2115ZM820.023 37.2115H820.976V46.8889H820.023V37.2115ZM821.783 37.2115H822.736V46.8889H821.783V37.2115ZM823.542 37.2115H824.496V46.8889H823.542V37.2115ZM825.302 37.2115H826.218V46.8889H825.302V37.2115Z" fill="#34BBDE"/>
<path fill-rule="evenodd" clip-rule="evenodd" d="M828.972 63.0408H840.584V74.6529H828.972V63.0408ZM829.938 64.0088H830.855V73.6856H829.939V64.0088H829.938ZM831.661 64.0088H832.614V73.6856H831.662L831.661 64.0088ZM833.421 64.0088H834.375V73.6856H833.421V64.0088ZM835.18 64.0088H836.134V73.6856H835.18V64.0088ZM836.94 64.0088H837.893V73.6856H836.94V64.0088ZM838.699 64.0088H839.616V73.6856H838.699V64.0088Z" fill="#23A3C2"/>
<path fill-rule="evenodd" clip-rule="evenodd" d="M799.663 93.4797C800.087 93.474 800.508 93.5527 800.902 93.7112C801.295 93.8697 801.654 94.1048 801.956 94.403C802.258 94.7011 802.498 95.0562 802.661 95.4478C802.825 95.8393 802.909 96.2595 802.909 96.6839C802.909 97.1083 802.825 97.5284 802.661 97.9199C802.497 98.3114 802.257 98.6665 801.955 98.9645C801.653 99.2625 801.294 99.4975 800.901 99.6558C800.507 99.8142 800.086 99.8927 799.661 99.8869C798.819 99.8754 798.015 99.5327 797.424 98.933C796.833 98.3334 796.501 97.5249 796.501 96.6827C796.501 95.8405 796.833 95.0322 797.425 94.4328C798.016 93.8333 798.82 93.4909 799.663 93.4797Z" fill="#D3ECEC"/>
<path fill-rule="evenodd" clip-rule="evenodd" d="M799.663 94.3885C799.955 94.3885 800.235 94.4435 800.493 94.5437C800.315 94.647 800.176 94.806 800.097 94.9961C800.019 95.1863 800.005 95.397 800.058 95.5957C800.112 95.7944 800.229 95.9701 800.392 96.0955C800.555 96.221 800.755 96.2893 800.96 96.2898C801.315 96.2898 801.622 96.0935 801.782 95.8029C801.971 96.2575 802.008 96.7607 801.889 97.2382C801.77 97.7157 801.5 98.1422 801.12 98.4547C800.739 98.7672 800.269 98.9491 799.777 98.9735C799.286 98.998 798.799 98.8637 798.39 98.5904C797.98 98.3172 797.67 97.9196 797.504 97.4562C797.338 96.9929 797.325 96.4885 797.468 96.0174C797.61 95.5464 797.901 95.1337 798.296 94.8404C798.691 94.5471 799.17 94.3886 799.663 94.3885ZM743 86.841H892.02C888.775 86.0183 881.754 84.9062 882.912 80.6535C877.012 87.4808 862.783 85.4435 859.192 82.0773C855.194 87.8769 831.914 85.6721 830.291 81.1539C825.277 87.0373 809.744 87.0373 804.73 81.1539C803.105 85.6721 779.827 87.8769 775.828 82.0767C772.237 85.4435 758.009 87.4808 752.109 80.6541C753.267 84.9062 746.246 86.0178 743 86.841Z" fill="#364548"/>
<path fill-rule="evenodd" clip-rule="evenodd" d="M808.178 116.564C800.244 112.8 795.89 107.682 793.467 102.095C790.52 102.936 786.978 103.474 782.862 103.705C781.312 103.792 779.68 103.836 777.969 103.836C775.996 103.836 773.916 103.778 771.733 103.662C779.009 110.934 787.959 116.532 804.532 116.634C805.755 116.634 806.969 116.61 808.178 116.564Z" fill="#BDD9D7"/>
<path fill-rule="evenodd" clip-rule="evenodd" d="M796.414 107.25C795.317 105.76 794.252 103.888 793.469 102.094C790.522 102.936 786.979 103.474 782.862 103.705C785.69 105.24 789.733 106.662 796.414 107.25Z" fill="#D3ECEC"/>
</g>
<path d="M326.061 102.061C326.646 101.475 326.646 100.525 326.061 99.9393L316.515 90.3934C315.929 89.8076 314.979 89.8076 314.393 90.3934C313.808 90.9792 313.808 91.9289 314.393 92.5147L322.879 101L314.393 109.485C313.808 110.071 313.808 111.021 314.393 111.607C314.979 112.192 315.929 112.192 316.515 111.607L326.061 102.061ZM225 102.5H325V99.5H225V102.5Z" fill="white"/>
<path d="M1422.06 100.061C1422.65 99.4749 1422.65 98.5251 1422.06 97.9393L1412.51 88.3934C1411.93 87.8076 1410.98 87.8076 1410.39 88.3934C1409.81 88.9792 1409.81 89.9289 1410.39 90.5147L1418.88 99L1410.39 107.485C1409.81 108.071 1409.81 109.021 1410.39 109.607C1410.98 110.192 1411.93 110.192 1412.51 109.607L1422.06 100.061ZM1321 100.5H1421V97.5H1321V100.5Z" fill="white"/>
<path d="M1050.06 104.061C1050.65 103.475 1050.65 102.525 1050.06 101.939L1040.51 92.3934C1039.93 91.8076 1038.98 91.8076 1038.39 92.3934C1037.81 92.9792 1037.81 93.9289 1038.39 94.5147L1046.88 103L1038.39 111.485C1037.81 112.071 1037.81 113.021 1038.39 113.607C1038.98 114.192 1039.93 114.192 1040.51 113.607L1050.06 104.061ZM949 104.5H1049V101.5H949V104.5Z" fill="white"/>
<path d="M688.061 102.061C688.646 101.475 688.646 100.525 688.061 99.9393L678.515 90.3934C677.929 89.8076 676.979 89.8076 676.393 90.3934C675.808 90.9792 675.808 91.9289 676.393 92.5147L684.879 101L676.393 109.485C675.808 110.071 675.808 111.021 676.393 111.607C676.979 112.192 677.929 112.192 678.515 111.607L688.061 102.061ZM587 102.5H687V99.5H587V102.5Z" fill="white"/>
<defs>
<clipPath id="clip0_0_1">
<rect width="120" height="166" fill="white" transform="translate(1494 10)"/>
</clipPath>
<clipPath id="clip1_0_1">
<rect width="163" height="69" fill="white" transform="translate(12 63)"/>
</clipPath>
<clipPath id="clip2_0_1">
<rect width="150" height="126" fill="white" transform="translate(743 34)"/>
</clipPath>
</defs>
</svg>
